<svg width="120" height="120" xmlns="http://www.w3.org/2000/svg">
 <!-- Created with SVG Editor - http://github.com/mzalive/SVG Editor/ -->

 <g>
  <title>background</title>
  <rect fill="none" id="canvas_background" height="122" width="122" y="-1" x="-1"/>
 </g>
 <g>
  <title>Layer 1</title>
  <ellipse ry="49.5" rx="50" id="svg_2" cy="60" cx="60" stroke-width="1.5" fill="#7f7f7f"/>
  <path id="svg_1" d="m59.99999,42c-19.28422,0 -34.5,17.99883 -34.5,17.99883s15.21578,18.00117 34.5,18.00117c14.74812,0 34.50001,-18.00117 34.50001,-18.00117s-19.75189,-17.99883 -34.50001,-17.99883zm0,29.21486c-6.76966,0 -12.28455,-5.03286 -12.28455,-11.21603s5.51489,-11.21602 12.28455,-11.21602s12.28456,5.0352 12.28456,11.21602s-5.51489,11.21603 -12.28456,11.21603zm0,-17.76318c-3.95855,0 -7.17088,2.93059 -7.17088,6.54715c0,3.61657 3.20977,6.54716 7.17088,6.54716c3.96112,0 7.17089,-2.93059 7.17089,-6.54716c0,-3.61423 -3.20977,-6.54715 -7.17089,-6.54715z" fill-opacity="null" stroke-opacity="null" stroke-width="1.5" stroke="null" fill="#ffffff"/>
 </g>
</svg>