<svg width="120" height="120" xmlns="http://www.w3.org/2000/svg">
 <!-- Created with SVG Editor - http://github.com/mzalive/SVG Editor/ -->

 <g>
  <title>background</title>
  <rect fill="none" id="canvas_background" height="122" width="122" y="-1" x="-1"/>
 </g>
 <g>
  <title>Layer 1</title>
  <ellipse ry="49.5" rx="50" id="svg_2" cy="60" cx="60" stroke-width="1.5" fill="#ff7f00"/>
  <path id="svg_1" d="m59.01895,82.74906c0,-1.25031 0,-2.50062 0,-3.75094c6.52826,-0.02429 13.05652,-0.04858 19.58478,-0.07288c0,-1.17987 0,-2.35974 0,-3.5396c-5.15594,-0.0472 -10.31187,-0.09439 -15.46781,-0.14159c5.89832,-7.36239 11.79663,-14.72477 17.69495,-22.08716c2.54248,-0.30761 4.83062,1.62373 5.00638,3.96436c0.26364,9.7897 0.11739,19.586 0.15839,29.37875c-8.99222,0 -17.98446,0 -26.9767,0c0,-1.25031 0,-2.50062 0,-3.75094l0,0zm-0.03673,-15.61071c-0.01316,-2.44233 -0.02631,-4.88466 -0.03947,-7.32699c-2.80217,3.34272 -5.28455,6.94274 -8.40108,10.03862c-2.76076,1.69923 -5.29191,-1.06821 -7.38159,-2.43362c-2.92134,-2.15342 -5.91978,-4.2359 -8.65572,-6.59165c-1.6727,-2.33396 1.11602,-5.65235 3.96138,-4.7708c2.54876,1.1684 4.58565,3.16159 6.89131,4.70069c1.37115,1.39994 3.01408,2.29185 3.96891,-0.0193c2.03024,-2.30469 3.65711,-4.98547 6.15817,-6.88762c2.51922,-1.30681 5.57051,-0.52151 8.31997,-0.76067c4.19635,0.01175 8.39516,-0.0347 12.58967,0.07604c-5.70903,7.14158 -11.47811,14.24354 -17.30528,21.30229c-0.09842,-2.44029 -0.0797,-4.88499 -0.10627,-7.32699l0,0zm9.4862,-16.61367c-3.42112,-0.52243 -6.04418,-3.51433 -6.02023,-6.71235c-1.20244,-0.04719 -2.40488,-0.09439 -3.60732,-0.14158c1.02846,-1.20347 2.05692,-2.40693 3.08537,-3.6104c5.12733,0 10.25467,0 15.382,0c-0.01445,2.99158 0.40554,6.47006 -2.35701,8.61575c-1.64461,1.56246 -4.19763,2.15185 -6.48282,1.84859l0,0zm-8.54316,-14.39008c-0.66757,-1.09829 -3.04154,-3.09455 -0.17591,-2.53879c5.85257,-0.07785 11.70593,-0.0387 17.55889,-0.04835c0,1.65182 0,3.30363 0,4.95545c-5.2128,0 -10.42561,0 -15.63841,0c-0.58152,-0.78944 -1.16304,-1.57887 -1.74457,-2.36831l0,0z" stroke-opacity="null" stroke-width="1.5" stroke="null" fill="#ffffff"/>
 </g>
</svg>