<svg width="120" height="120" xmlns="http://www.w3.org/2000/svg">
 <!-- Created with SVG Editor - http://github.com/mzalive/SVG Editor/ -->

 <g>
  <title>background</title>
  <rect fill="none" id="canvas_background" height="122" width="122" y="-1" x="-1"/>
 </g>
 <g>
  <title>Layer 1</title>
  <path id="svg_2" d="m60,109.5c-27.62431,0 -50,-22.15193 -50,-49.5c0,-27.34807 22.37569,-49.5 50,-49.5c27.62431,0 50,22.15193 50,49.5c0,27.34807 -22.37569,49.5 -50,49.5z" opacity="undefined" stroke-width="1.5" fill="#7f00ff"/>
  <path id="svg_4" d="m76.21594,82l7.89409,-4.26591l7.88997,-4.26766l-7.89415,-4.27067l-7.88992,-4.2674l0,4.74585c-1.93391,0 -4.18116,0 -4.93403,0c-3.58953,0.09476 -8.01995,-2.55303 -12.73335,-5.96633c-1.75708,-1.1968 -3.52975,-2.51348 -5.40853,-3.70239c1.87878,-1.19037 3.64892,-2.50553 5.40853,-3.70229c4.7134,-3.40858 9.14382,-6.06113 12.72872,-5.96469l4.93866,-0.0016l0,4.75221l7.88992,-4.2691l7.89415,-4.27238l-7.89415,-4.27696l-7.88992,-4.27069l0,4.74917l-4.93612,0c-7.33155,0.09619 -12.81082,4.17755 -17.60548,7.4946c-4.75974,3.50021 -9.03813,6.13526 -11.51945,5.96474l-14.15489,0l0,7.58151l14.15953,0c2.47919,-0.17218 6.75973,2.46458 11.51901,5.96469c4.79256,3.31872 10.26973,7.3967 17.60337,7.49465l4.93403,0l0,4.75064l0,0l0,0z" stroke-opacity="null" stroke-width="1.5" stroke="null" fill="#ffffff"/>
 </g>
</svg>