<svg width="120" height="120" xmlns="http://www.w3.org/2000/svg">
 <!-- Created with SVG Editor - http://github.com/mzalive/SVG Editor/ -->

 <g>
  <title>background</title>
  <rect x="-1" y="-1" width="122" height="122" id="canvas_background" fill="none"/>
 </g>
 <g>
  <title>Layer 1</title>
  <ellipse fill="#007fff" stroke-width="1.5" cx="60" cy="60" id="svg_2" rx="50" ry="49.5"/>
  <path stroke="null" id="svg_1" d="m64.429316,70.518206l-1.722573,-6.082198c0.504816,-0.446728 0.978634,-0.924726 1.425883,-1.43623l6.024576,1.737771c0.635448,-0.933661 1.182331,-1.925396 1.671648,-2.955104l-4.48356,-4.377932c0.214768,-0.643288 0.400753,-1.297744 0.533599,-1.972303l6.042289,-1.527809c0.044282,-0.562877 0.08635,-1.127987 0.08635,-1.704266s-0.044282,-1.139156 -0.08635,-1.702033l-6.042289,-1.527809c-0.13506,-0.674559 -0.321045,-1.329015 -0.533599,-1.972303l4.485774,-4.377932c-0.491531,-1.027474 -1.038415,-2.021443 -1.673862,-2.955104l-6.024576,1.735537c-0.445035,-0.50927 -0.921067,-0.987268 -1.425883,-1.43623l1.722573,-6.079964c-0.925495,-0.638821 -1.910772,-1.192763 -2.931473,-1.686397l-4.339643,4.525352c-0.635448,-0.216663 -1.286394,-0.402055 -1.955054,-0.538307l-1.512233,-6.097833c-0.560168,-0.042439 -1.118122,-0.087112 -1.689361,-0.087112s-1.129193,0.044673 -1.687147,0.087112l-1.514447,6.097833c-0.668659,0.136252 -1.317392,0.321644 -1.955054,0.538307l-4.339643,-4.525352c-1.018488,0.500335 -2.00155,1.052044 -2.927045,1.693098l1.722573,6.079964c-0.504816,0.446728 -0.980848,0.92696 -1.423669,1.433996l-6.02679,-1.737771c-0.635448,0.933661 -1.182331,1.92763 -1.671648,2.957337l4.485774,4.377932c-0.212554,0.643288 -0.398539,1.297744 -0.533599,1.972303l-6.044503,1.527809c-0.042068,0.562877 -0.08635,1.127987 -0.08635,1.702033s0.044282,1.139156 0.08635,1.704266l6.044503,1.527809c0.13506,0.674559 0.321045,1.329015 0.533599,1.972303l-4.485774,4.377932c0.489317,1.027474 1.036201,2.021443 1.671648,2.955104l6.02679,-1.737771c0.442821,0.511503 0.918853,0.987268 1.423669,1.43623l-1.722573,6.082198c0.925495,0.638821 1.910772,1.190529 2.929259,1.686397l4.339643,-4.525352c0.637662,0.216663 1.286394,0.404289 1.955054,0.538307l1.514447,6.0956c0.557954,0.044673 1.118122,0.087112 1.689361,0.087112s1.129193,-0.044673 1.689361,-0.087112l1.512233,-6.0956c0.668659,-0.136252 1.319606,-0.323878 1.955054,-0.538307l4.339643,4.525352c1.016274,-0.500335 2.00155,-1.052044 2.927045,-1.690864zm-12.42555,-10.723699c-4.155873,0 -7.525739,-3.399598 -7.525739,-7.592137s3.369866,-7.589904 7.525739,-7.589904s7.523524,3.397364 7.523524,7.589904s-3.367652,7.592137 -7.523524,7.592137zm34.300895,15.870002c0.042068,-1.2218 -0.132846,-2.465937 -0.509244,-3.694438l2.754345,-3.960241c-0.416251,-0.781773 -0.885641,-1.523341 -1.41924,-2.1979l-4.698328,0.993969c-0.947636,-0.813044 -2.025905,-1.447398 -3.179453,-1.900826l-1.352817,-4.643735c-0.854644,-0.151887 -1.720359,-0.234532 -2.597144,-0.236766l-2.156537,4.324324c-0.617735,0.120616 -1.23547,0.285906 -1.842134,0.520438c-0.569025,0.218897 -1.10041,0.4914 -1.609653,0.788474l-4.441492,-1.82935c-0.657589,0.585213 -1.257611,1.217333 -1.800066,1.90306l2.008192,4.395801c-0.573453,1.105651 -0.967563,2.29618 -1.14912,3.540317l-4.18687,2.367657c0.042068,0.866652 0.168272,1.733304 0.363113,2.602189l4.658474,1.159258c0.511458,1.170427 1.19783,2.218003 2.028119,3.111458l-0.779365,4.775519c0.708513,0.513737 1.461308,0.955997 2.242887,1.340183l3.797188,-2.948403c1.18676,0.314943 2.428872,0.43556 3.67984,0.335046l3.214879,3.589457c0.442821,-0.127317 0.883427,-0.263569 1.319606,-0.431092c0.387468,-0.14742 0.752795,-0.321644 1.118122,-0.498101l0.081922,-4.835827c1.007417,-0.757203 1.866489,-1.668528 2.550647,-2.693768l4.784678,-0.299308c0.336544,-0.801876 0.617735,-1.635023 0.81479,-2.490507l-3.695339,-3.086888zm-9.217314,4.482913c-2.659139,1.023006 -5.634894,-0.321644 -6.651168,-3.004244s0.316617,-5.686844 2.975755,-6.712084c2.659139,-1.023006 5.639322,0.321644 6.655596,3.004244c1.01406,2.6826 -0.321045,5.686844 -2.980184,6.712084z" stroke-opacity="null" stroke-width="1.5" fill="#ffffff"/>
 </g>
</svg>