<svg width="120" height="120" xmlns="http://www.w3.org/2000/svg">
 <!-- Created with SVG Editor - http://github.com/mzalive/SVG Editor/ -->

 <g>
  <title>background</title>
  <rect fill="none" id="canvas_background" height="122" width="122" y="-1" x="-1"/>
 </g>
 <g>
  <title>Layer 1</title>
  <path id="svg_2" d="m60,109.5c-27.62431,0 -50,-22.15193 -50,-49.5c0,-27.34807 22.37569,-49.5 50,-49.5c27.62431,0 50,22.15193 50,49.5c0,27.34807 -22.37569,49.5 -50,49.5z" opacity="undefined" stroke-width="1.5" fill="#c6c61b"/>
  <path id="svg_5" d="m60.00001,33.5c-14.91236,0 -27.00001,11.86447 -27.00001,26.5c0,14.63553 12.08765,26.5 27.00001,26.5c14.91167,0 26.99999,-11.86447 26.99999,-26.5c0,-14.63553 -12.08832,-26.5 -26.99999,-26.5zm0,49.82421c-2.8779,0 -5.21292,-2.29112 -5.21292,-5.11636s2.33292,-5.11647 5.21292,-5.11647c2.87926,0 5.21219,2.28979 5.21219,5.11647s-2.33292,5.11636 -5.21219,5.11636zm0,-14.04851l-14.59841,-11.96467l6.44456,0l0,-16.0057l16.30914,0l0,16.0057l6.44237,0l-14.59766,11.96467l0,0z" stroke-opacity="null" stroke-width="1.5" stroke="null" fill="#ffffff"/>
 </g>
</svg>